{
    "accessors" : [
        {
            "bufferView" : 0, 
            "componentType" : 5121, 
            "count" : 84, 
            "max" : [
                55
            ], 
            "min" : [
                0
            ], 
            "type" : "SCALAR"
        }, 
        {
            "bufferView" : 1, 
            "componentType" : 5126, 
            "count" : 56, 
            "max" : [
                15.0, 
                1.3300000429153442, 
                15.0
            ], 
            "min" : [
                -15.0, 
                -0.6699999570846558, 
                -15.0
            ], 
            "type" : "VEC3"
        }, 
        {
            "bufferView" : 2, 
            "componentType" : 5126, 
            "count" : 56, 
            "max" : [
                1.0, 
                1.0, 
                1.0
            ], 
            "min" : [
                -1.0, 
                -1.0, 
                -1.0
            ], 
            "type" : "VEC3"
        }, 
        {
            "bufferView" : 3, 
            "componentType" : 5126, 
            "count" : 56, 
            "max" : [
                1.0, 
                1.0, 
                0.40824753046035767, 
                1.0
            ], 
            "min" : [
                -1.0, 
                -1.0, 
                -0.408246785402298, 
                1.0
            ], 
            "type" : "VEC4"
        }, 
        {
            "bufferView" : 4, 
            "componentType" : 5126, 
            "count" : 56, 
            "max" : [
                14.200021743774414, 
                8.514256477355957
            ], 
            "min" : [
                -13.200021743774414, 
                -7.0836076736450195
            ], 
            "type" : "VEC2"
        }
    ], 
    "asset" : {
        "generator" : "Khronos Blender glTF 2.0 exporter", 
        "version" : "2.0"
    }, 
    "bufferViews" : [
        {
            "buffer" : 0, 
            "byteLength" : 84, 
            "byteOffset" : 0, 
            "target" : 34963
        }, 
        {
            "buffer" : 0, 
            "byteLength" : 672, 
            "byteOffset" : 84, 
            "target" : 34962
        }, 
        {
            "buffer" : 0, 
            "byteLength" : 672, 
            "byteOffset" : 756, 
            "target" : 34962
        }, 
        {
            "buffer" : 0, 
            "byteLength" : 896, 
            "byteOffset" : 1428, 
            "target" : 34962
        }, 
        {
            "buffer" : 0, 
            "byteLength" : 448, 
            "byteOffset" : 2324, 
            "target" : 34962
        }
    ], 
    "buffers" : [
        {
            "byteLength" : 2772, 
            "uri" : "baller_base.bin"
        }
    ], 
    "images" : [
        {
            "name" : "diffuse", 
            "uri" : "diffuse.jpg"
        },
        {
            "name" : "normal", 
            "uri" : "normal.jpg"
        }
    ], 
    "materials" : [
        {
            "name" : "base_mat", 
            "pbrMetallicRoughness" : {
                "baseColorTexture" : {
                    "index" : 0
                }, 
                "metallicFactor" : 0.0
            },
            "normalTexture" : {
                "index" : 1,
                "scale" : 3
            }
        }
    ], 
    "meshes" : [
        {
            "name" : "Cube.001", 
            "primitives" : [
                {
                    "attributes" : {
                        "NORMAL" : 2, 
                        "POSITION" : 1, 
                        "TANGENT" : 3, 
                        "TEXCOORD_0" : 4
                    }, 
                    "indices" : 0, 
                    "material" : 0
                }
            ]
        }
    ], 
    "nodes" : [
        {
            "mesh" : 0, 
            "name" : "baller_base"
        }
    ], 
    "samplers" : [
        {}
    ], 
    "scene" : 0, 
    "scenes" : [
        {
            "name" : "Scene", 
            "nodes" : [
                0
            ]
        }
    ], 
    "textures" : [
        {
            "sampler" : 0, 
            "source" : 0
        }, 
        {
            "sampler" : 0, 
            "source" : 1
        }
    ]
}
